<svg id="Layer_1" data-name="Layer 1" xmlns="http://www.w3.org/2000/svg" viewBox="0 0 279.97 395.89"><defs><style>.cls-1{fill:#fcfcf4;}.cls-2{fill:#243048;}.cls-3{fill:#263147;}.cls-4{fill:#253048;}.cls-5{fill:#273248;}.cls-6{fill:#273249;}.cls-7{fill:#29334a;}.cls-8{fill:#273148;}.cls-9{fill:#283247;}.cls-10{fill:#252934;}.cls-11{fill:#2e364c;}.cls-12{fill:#2d364b;}.cls-13{fill:#293143;}.cls-14{fill:#293247;}.cls-15{fill:#2b3748;}.cls-16{fill:#2d394c;}.cls-17{fill:#2d374b;}.cls-18{fill:#2e374e;}.cls-19{fill:#343b4e;}.cls-20{fill:#08d7d5;}.cls-21{fill:#fdfdfd;}.cls-22{fill:#04b7ba;}.cls-23{fill:#f9f9fa;}.cls-24{fill:#cecfd2;}.cls-25{fill:#f9f9f9;}.cls-26{fill:#cfd0d3;}.cls-27{fill:#08abb1;}.cls-28{fill:#f2f3f4;}.cls-29{fill:#f4f4f5;}.cls-30{fill:#06b3b7;}.cls-31{fill:#08a9ad;}.cls-32{fill:#08c9c8;}.cls-33{fill:#07aaae;}.cls-34{fill:#06b4b7;}.cls-35{fill:#08b0b4;}.cls-36{fill:#0aa0a3;}.cls-37{fill:#0da7ac;}.cls-38{fill:#0d949e;}.cls-39{fill:#0aa3a9;}.cls-40{fill:#08cbc7;}.cls-41{fill:#08adae;}.cls-42{fill:#6d7585;}.cls-43{fill:#7f8495;}.cls-44{fill:#ccd3e0;}.cls-45{fill:#5a6779;}.cls-46{fill:#06a3a0;}.cls-47{fill:#cbd2de;}.cls-48{fill:#fdba89;}.cls-49{fill:#293957;}.cls-50{fill:#fcba89;}.cls-51{fill:#e2e3e5;}.cls-52{fill:#fcfcfc;}.cls-53{fill:#252a35;}.cls-54{fill:#f9ac77;}.cls-55{fill:#f9ab76;}.cls-56{fill:#f9ac76;}.cls-57{fill:#f9b888;}.cls-58{fill:#f5b689;}.cls-59{fill:#f4b688;}.cls-60{fill:#f3b587;}.cls-61{fill:#202632;}.cls-62{fill:#efb287;}.cls-63{fill:#ed9861;}.cls-64{fill:#ebae81;}.cls-65{fill:#f6a974;}.cls-66{fill:#f6aa76;}.cls-67{fill:#dc9161;}.cls-68{fill:#20252e;}.cls-69{fill:#dea782;}.cls-70{fill:#faac75;}.cls-71{fill:#f8ab75;}.cls-72{fill:#f3b485;}.cls-73{fill:#f3b688;}.cls-74{fill:#ebb085;}.cls-75{fill:#32374b;}.cls-76{fill:#feba89;}.cls-77{fill:#fcb988;}.cls-78{fill:#f5b687;}.cls-79{fill:#f6b787;}.cls-80{fill:#f3b586;}.cls-81{fill:#efb387;}.cls-82{fill:#e2e4e6;}.cls-83{fill:#e4e6e7;}.cls-84{fill:#e4e5e7;}.cls-85{fill:#f1b385;}.cls-86{fill:#dca780;}.cls-87{fill:#25324d;}.cls-88{fill:#fcb989;}.cls-89{fill:#f3a874;}.cls-90{fill:#f7b88a;}.cls-91{fill:#f2b588;}.cls-92{fill:#fcac76;}.cls-93{fill:#faac77;}.cls-94{fill:#fcba8a;}.cls-95{fill:#f0b286;}.cls-96{fill:#fcfdfd;}.cls-97{fill:#fbac75;}.cls-98{fill:#faac76;}.cls-99{fill:#dfa881;}.cls-100{fill:#f2b488;}.cls-101{fill:#232f4b;}.cls-102{fill:#4ce3da;}.cls-103{fill:#47e2da;}.cls-104{fill:#293145;}.cls-105{fill:#3d3f4e;}.cls-106{fill:#33384b;}.cls-107{fill:#372b26;}.cls-108{fill:#2d2522;}.cls-109{fill:#fd8164;}.cls-110{fill:#fd8165;}.cls-111{fill:#2f446d;}.cls-112{fill:#262933;}</style></defs><path class="cls-1" d="M1104,572.67c1.11-2.93,3-1.29,4.65-.78C1107.23,572.74,1105.62,572.62,1104,572.67Z" transform="translate(-834.32 -176.78)"/><path class="cls-2" d="M999,354.48q2.67,37.5,5.35,75c.76,10.57,1.48,21.14,2.24,31.71.06.82-.27,1.88.78,2.31,3.91,1.58,3,4.22,1.66,7-.48,1-.76,2.11-1.22,3.13-.71,1.54-.33,2.49,1.23,3.27,3.12,1.57,4.32,4.28,4.25,7.69s0,7,0,10.48c-.09,3.89-1.89,5.86-5.69,5.93q-9,.18-18,0c-3.87-.09-5.5-2-5.55-6,0-3.49.09-7,0-10.47-.12-3.31,1-5.95,3.93-7.46a2.37,2.37,0,0,0,1.3-3.34,18.06,18.06,0,0,1-1-11.25c1.14-4.88-.34-10.37-.71-15.6q-2.44-35.07-4.92-70.15c-.27-3.85-.61-7.71-.73-11.57-.06-1.91-.56-2.58-2.61-2.41a69.93,69.93,0,0,1-9.71.07c-1.94-.13-2.56.32-2.69,2.32-2,29.49-4,59-6,88.45-.29,4.35-1.57,8.7.68,13.1.91,1.78-.92,4-1.66,6-.83,2.18-.8,3.59,1.56,4.82a6.34,6.34,0,0,1,3.29,5.92c0,4.12,0,8.24,0,12.35,0,3.35-2,5.14-5.15,5.23-6.23.18-12.47.17-18.71,0-3.35-.08-5.26-2.07-5.32-5.51-.07-3.86,0-7.73,0-11.6,0-3,1.17-5.43,3.9-6.72,2.19-1,2.16-2.36,1.31-4.2-.67-1.46-1.16-3-1.81-4.5-.77-1.77-.36-3.57,1.18-4.23,2.14-.91,2.06-2.44,2.18-4.17q3.74-52.8,7.5-105.59a4.47,4.47,0,0,0,.11-2.89c-.14-.67-.77-1.51.37-1.77s1.42.69,1.7,1.52a23.65,23.65,0,0,1,.19,3.85c.36,2.3,1.41.63,2.2.37a15.77,15.77,0,0,0,3.08-3.24,2.31,2.31,0,0,1,.94-.56,2.12,2.12,0,0,1,2.08.73c.36,1.73-.84,2.75-1.76,3.89-5.42,3.45-7.08,8.26-7.38,14.74-.85,18.27-2.44,36.51-3.63,54.77-.7,10.68-1.61,21.34-2.2,32-.17,2.93.76,4,3.7,4,7.64.14,7.78.26,8.48-7.5,1.17-13.14,1.87-26.32,2.86-39.47,1-12.66,1.66-25.34,2.76-38,.37-4.22.18-8.47.93-12.66.68-3.78,1.38-4.47,5.11-4.34a75.28,75.28,0,0,0,10.83-.11c2.9-.31,4.05,1,4.33,3.75,1,10,1.5,20.11,2.23,30.17.95,13.15,1.83,26.32,2.79,39.47.64,8.69,1.18,17.39,1.73,26.08-.46,2.53.56,3.6,3.16,3.44,2-.12,3.92,0,5.88,0,3.87-.11,3.89-.16,3.18-4q-1.23-18.84-2.6-37.65c-1.15-15.89-2-31.81-3.5-47.69a3.76,3.76,0,0,1-.06-.74q1.47-10.89-7.82-16.77c-1.81-2.59-4.34-3.33-7.41-3.27-5.8.13-11.6.05-17.4,0a9.41,9.41,0,0,1-4-.5c-2.2-1-2.07-1.93,0-2.89a1.83,1.83,0,0,1,.73-.15c8.6-.12,17.19-.4,25.78.16a3.77,3.77,0,0,1,1.7.72c1.89,1.63,3.31,3.74,5.28,5.3.82.28,1.55,2.18,2.46.09a5.32,5.32,0,0,1,.77-3C999.57,351.81,998.18,353.93,999,354.48Z" transform="translate(-834.32 -176.78)"/><path class="cls-3" d="M1011,211.52q0,10.08,0,20.17c0,2.71,0,5.18,1.83,7.69,2.25,3.16.47,7.83-3.37,9.22-2,.71-2.32,1.81-2.57,3.45-2,12.95-9.09,21.79-21.33,26.38-2,.74-2.2,1.8-2.2,3.56s.24,2.93,2.29,2.86c.24,1.73-1.87,1.55-2.24,2.79-5,6.33-10.19,6.85-16.16,1.5a6.67,6.67,0,0,0-4.75-1.75,29.86,29.86,0,0,1-6.34-.28c-1.08-.35-2.22-.62-2.84-1.7.11-.66.55-1.21-.45-1.84-2.78-1.72-5.34-3.8-8.06-5.63-4.25-2.82-8.35-5.84-12.45-8.86-2.35-1.73-4-1.44-5.46,1s-3.54,4.8-5.08,7.36c-2.85,1.85-1.23,4-.37,6.07-.37.79-.58,1.84-1.87,1.25-.21-.43-.3-1.12-.63-1.26-3.26-1.39-2.88-3.67-1.09-5.73,1.55-1.77.57-2.36-.72-3.27q-10.51-7.49-21-15C884.3,251,882.44,240,890.84,228.15c4.4-6.2,8.77-12.42,13.35-18.49,1.53-2,1.37-3-.75-4.28s-4.07-2.87-6.09-4.33-2.74-3.5-1.11-5.44c1.4-1.65.29-2-.69-2.77-2.13-1.59-2.94-3.65-1-5.71,1.23-1.32.21-1.83-.18-2.76-1.31-3.1.6-5.72,3.88-5.14,1.46.26,2.2.41,3.26-1,1.68-2.26,3.89-1.47,5.92,0,5.37,3.84,10.77,7.62,16.45,11.63.47-1.49.78-2.76,1.26-3.95.79-1.94,2.22-3.17,4.37-2.6a3.48,3.48,0,0,1,2.78,4.25c-1.41,7.34-2.85,14.61-7.53,20.86-7,9.38-13.76,19-20.57,28.51-3.67,5.14-3.45,6.37,1.57,10,16.72,12,33.51,23.85,50.12,36,2.9,2.11,5.82,1.7,8.87,1.83,1.2,0,1.54-.81,1.33-1.74-.31-1.4,1.15-3.33-1.21-4.16a26.8,26.8,0,0,1-2.66-1.25,2,2,0,0,1,1.17-1.35c1.65-.5,3.2.15,4.76.49,19.25,4.07,35.89-9.38,35.93-29,0-3.73-.18-7.47.13-11.19.17-.73.45-1.8,1.14-1.72,4.22.49,3.41-2.42,3.23-4.74-.32-4.09.9-8.28-.76-12.27a9.16,9.16,0,0,1-1.29-.74,1.69,1.69,0,0,1-.35-.94,2.17,2.17,0,0,1,.68-1.34C1008.43,213.9,1008.68,211.35,1011,211.52Z" transform="translate(-834.32 -176.78)"/><path class="cls-4" d="M1011,211.52c-1.67.82-1.82,3.14-3.71,3.73-.8-1-.21-1.88.2-2.77,3.79-8.26,1.1-16.22-.68-24.88-6.93,7.2-15.58,6.06-23.6,6.87a88.72,88.72,0,0,1-13.83-.07c-4.13-.23-8,.49-10.62,4.17-1.65,2.28-3.47,2.31-6.15,1.14-3.72-1.63-7.93-.94-11.69.14-3.19.92-3.57,4.29-3.59,7.19,0,2.74.66,5.44.88,8.18.16,2.06,1,2.13,2.66,1.17a13.37,13.37,0,0,1,9.34-1.89,3.66,3.66,0,0,0,2.87-.61c3-2.3,5.53-1.37,8,.77a11.88,11.88,0,0,0,8.35,2.61c7.48-.13,15,0,22.45,0,4.23,0,8.5.31,12.52-1.5a1.81,1.81,0,0,1,2.1.27v.76a1.65,1.65,0,0,1-1.25,2.24c-2.58.67-2.69,2.4-2.28,4.48-.66,4.35,1.16,8.39,1.5,12.62-2.57.61-3.27-1.44-4.31-3-1-2.36-.73-4.87-.74-7.34,0-4.2-.51-4.8-4.66-4.84-8.93-.08-17.87,0-26.81,0a13.88,13.88,0,0,1-8.46-2.28c-2.34-2.36-4.76-1.27-7.17-.14-2.25,1-1.63,3.11-1.71,4.88-.16,3.93.64,8-2,11.52-2.66,1.92-3.31,4.52-3.37,7.75-.12,7.45.36,14.66,4.66,21.1a31.47,31.47,0,0,0,10.35,10c1.13.67,2.6,1,2.88,2.66l-1,1.09c-11.15-4.69-17.28-13.29-19.22-25-.33-2-.68-3.11-2.84-4-5-2.07-5.23-7-.92-12.28A8.21,8.21,0,0,1,941.5,235c4.19-1.38,5.76-4.44,5.66-8.64,0-1.74,0-3.49,0-5.22,0-1.25,0-2.49-1.7-2.65a3.47,3.47,0,0,0-3.28,1.2,6.64,6.64,0,0,0-.41,1c-.16,3.94-.09,7.86,0,11.79,0,1.84-.36,3.17-2.57,3.07-.06-1.24-.16-2.48-.19-3.72-.07-3.52-.21-6.76-2-10.24-2.72-5.36-2.93-11.59-2-17.57.76-5.15,3.84-7.52,9.1-7.38,3.56.1,7.24-.87,10.67.9,1.35.69,1.7-.67,2.31-1.3,3.2-3.36,7.16-4.73,11.74-4.83,9-.2,18,.71,26.89-.71A16,16,0,0,0,1001,189c1.93-1.05,3.24-2.4,2.05-4.81-.32-.65-.81-1.35-.09-2s1.63-.25,2.44,0a3.73,3.73,0,0,1,2.21,1.92C1011.86,192.86,1013.6,201.93,1011,211.52Z" transform="translate(-834.32 -176.78)"/><path class="cls-5" d="M1040.37,231c-6.2-8.57-12.6-17-18.55-25.77-3.57-5.25-4.36-11.6-5.47-17.72a3.47,3.47,0,0,1,2.8-4.23c2.15-.53,3.59.69,4.35,2.64.45,1.15.71,2.37,1.18,4,5.45-3.85,10.71-7.53,15.93-11.26,2.57-1.84,5.06-3.08,7.15.54.77,1.35,1.49.21,2.19.08,1.58-.28,3-.14,4,1.24a3.24,3.24,0,0,1-.3,4.4c-.86.9-.9,1.16-.14,2.09,1.72,2.08,1.91,4.23-.56,6-1.17.82-1.72,1.3-.57,2.8,1.53,2,.82,4-1.23,5.44s-4.17,3.18-6.4,4.53c-1.94,1.17-1.71,2.16-.53,3.76,4.46,6,8.8,12.1,13.15,18.18,9,12.55,7.08,23.5-5.55,32.41-5.8,4.09-11.61,8.14-17.42,12.21-.7.31-1-.11-1.28-.67a1.9,1.9,0,0,1,.12-1.1c4.88-4.65,10.77-7.95,16.12-12,2.78-2.1,5.61-4,7.67-7,4.29-6.13,4.28-12.89-.54-20.18-4-6-8.38-11.74-12.48-17.67-1.38-3.16-3.4-4.08-6.71-2.44a10.18,10.18,0,0,1-6.82.79c0,1.4.89,2,1.39,2.85,2.95,4.07,5.82,8.19,8.79,12.25.72,1,1.53,1.95,1.41,3.3C1041.73,231.21,1041.22,231.58,1040.37,231Z" transform="translate(-834.32 -176.78)"/><path class="cls-6" d="M1035.13,326l9.93,10.12c3.65,3.72,5.19,3.84,9,.19,8.6-8.14,17.23-16.26,25.63-24.6,5.52-5.49,12.39-8.15,19.52-10.47,2.24-.73,4-.23,4.94,2,1,2.48-.34,3.95-2.51,5-1,.47-2.2.58-2.89,1.78,4.5,4.78,9,9.61,13.56,14.37,2.15,2.23,2.94,4.45.1,6.59-1.2.9-.33,1.32,0,2a3.51,3.51,0,0,1-.39,4.17,3.35,3.35,0,0,1-4.38.86c-1-.54-1.52-.57-2.38.4-1.71,1.93-3.75,1.75-5.55,0-1.13-1.08-1.83-2.17-3.41-.27-1.23,1.47-3.17,1.14-4.72-.09-.39-.3-.7-.7-1.08-1-2.39-2.09-4.13-6.44-6.86-6.16s-4.78,4-7.21,6.1c-5.63,4.88-10.16,11-16.71,14.83-.59-.68-.3-1.37,0-2.06,2.43-3.84,6.57-5.93,9.51-9.28,2.53-2.87,5.35-5.49,8.11-8.16,3.73-2.83,3.72-2.83,1.68-7a12.38,12.38,0,0,1-1.44-4.92c-.14-3.19-1.35-1.64-2.45-.56-6.08,6.41-12.77,12.2-19.14,18.31-4.81,4.62-8,4.65-12.81-.05-3.5-3.45-7.19-6.8-9.28-11.42C1034.13,326.1,1034.43,325.67,1035.13,326Z" transform="translate(-834.32 -176.78)"/><path class="cls-7" d="M1040.37,231l1.34-.64c8.07,3.48,9.72,13.4,3,18.48-5.84,4.39-11.68,8.8-17.87,12.71-.3.22-.63.4-.93.63-3.67,2.71-3.68,2.81-1.07,6.41.94,1.3,2.11,2.48,2.28,4.21a2.48,2.48,0,0,1-1,1.78c-2.55-.54-3.16-3-4.45-4.7-1.62-2.13-2.91-2.58-5.18-.85-4,3.1-8.27,6-12.42,8.94a93.6,93.6,0,0,0-9.32,6.78c1.5.26,2.9-.34,4.36-.37a4.28,4.28,0,0,1,1.18.14c8,.2,16-.1,23.93.18,2,.07,3.28-1.67,5.18-1.18-.11.53-.22,1.06.44,1.34,2.37.93,2.37.93,1.74,2.1-3.65,1.15-7.4.48-11.11.58-4.47.12-9,.08-13.42,0-2.71,0-3.78,1.11-3.75,3.79,0,4.48.13,8.95-.06,13.43,0,.68,0,1.37,0,2.05-.15,4.54.71,9.13-.61,13.61a2.62,2.62,0,0,0-1.09,2.41c-.37,9.31,0,18.62-.18,27.92-1.94.53-2.59,1.85-2.32,3.75l-1.44-2.22a13.18,13.18,0,0,1-8-.53,4.33,4.33,0,0,0-3.88-1.71c-7.89,0-15.79,0-23.68,0-.75,0-1.84-.45-2.06.82,0,.16.74.46,1.14.69a.81.81,0,0,1-.63.78l-2.29-.09a18.55,18.55,0,0,1-5.26.14,3.32,3.32,0,0,1-1.6-.74c-.19-.41-.27-1-.59-1.19-.48-.24-.49.24-.42.62.2,1.17.55,2.37-.44,3.4-.2-1.42.58-3.28-2.22-3.21-1.68,0-1.29-1.83-1.3-3,0-6.86,0-13.71,0-20.56,0-1.27.6-2.77-.75-3.81a1.73,1.73,0,0,1-1.87,0c1.94-5.6,1-11.41,1.27-17.14,0-.66,0-1.33,0-2,.13-5.93-.65-11.87.49-17.77a1.17,1.17,0,0,1,1.07-.69c1.36,3.2.37,6.55.59,9.82.17,2.59,0,5.19,0,7.79,0-5.92,0-11.85,0-17.78.39-1.29,1.59-1.46,2.61-1.88,1.33-.27,2.65-.44,3.77.63l2.24,1.39a2.68,2.68,0,0,1-1.52,1c-4.74,1.37-4.76,1.37-4.77,6.08q0,24.87,0,49.73c0,4.81.2,5,5.1,5q19.63,0,39.26,0c4.66,0,4.88-.22,4.88-4.83q0-25.23,0-50.47c0-4.95-.24-5-5.36-5.23-3.54-.15-7.24,1-10.61-1,.54-1.36,2.36-.39,3-1.63,3.42.21,6.09-1.31,8.8-3.27,16.14-11.67,32.38-23.22,48.57-34.83,4.92-3.53,5.08-4.65,1.61-9.65C1043.17,235.07,1041.78,233,1040.37,231Z" transform="translate(-834.32 -176.78)"/><path class="cls-8" d="M874.77,297.7c-5.56-1.7-10.18-8.45-10.44-16.19-.3-8.59-.25-17.2-.1-25.8,0-2.81-.73-3.83-3.54-3.54-2.1.22-4.24,0-6.36.05-2.87.08-5.06-.76-4.87-4.1.1-1.71-.85-1.42-1.8-1.44-2.76,0-4.69-1.07-4.43-4.18.12-1.35-.4-1.61-1.52-1.93a3.18,3.18,0,0,1-2.27-3.11c-.05-1,0-2.54.93-2.65,4.28-.53,2.11-7.55,7.77-7.06,6.65.58,13.39.14,20.06.14.28-1.82-.64-3-.9-4.3-.37-1.88,0-3.59,1.88-4.4s3.83-.38,4.78,1.61c3.07,6.39,6.15,12.78,6.1,20.16-.07,12.46,0,24.93-.08,37.39,0,3.39.86,5.85,4.56,6.47a.75.75,0,0,1,.09,1,2.86,2.86,0,0,1-2.09.89,6,6,0,0,1-4.95-5.35c-.19-10.67,0-21.35-.14-32.53a32.78,32.78,0,0,1-9.14,4.51c-2.44.7-1.09,3.44-1.41,5.28,0,6.22.09,12.44,0,18.66-.14,6.84,1.82,12.74,7,17.39a4,4,0,0,1,1.26,1.82A1.54,1.54,0,0,1,874.77,297.7Z" transform="translate(-834.32 -176.78)"/><path class="cls-5" d="M849.6,337.36c-1.84,2.67-4.08,3.36-6.4.81-1.05-1.14-1.6-.44-2.43-.09a3.52,3.52,0,0,1-4.11-.82,3.57,3.57,0,0,1-.6-4.16c.34-.84,1.24-1.3,0-2.29-2.63-2-1.91-4.21.11-6.33,4.59-4.83,9.15-9.71,14-14.81-1.55-.73-2.81-1.22-4-1.89a3.43,3.43,0,0,1-1.8-4.41,3.35,3.35,0,0,1,4.45-2.3c7.27,2.26,14.29,4.88,19.91,10.44,7.86,7.8,16,15.34,24,23,6.1,5.88,6.51,5.89,12.47-.09a11.5,11.5,0,0,1,1.15-.91,1.27,1.27,0,0,1,1.55-.17c.47,4.3-3.19,5.45-5.75,7.31s-5.13.93-7.24-.82c-3.16-2.63-6.35-5.24-9.28-8.13-4-4-7.92-8-11.93-11.88a7.22,7.22,0,0,0-2.27-1.72,17.48,17.48,0,0,1-5.1,11.5,1.15,1.15,0,0,1-1.44.29h-.19c-.64.35-1,0-1.33-.49-.41-1.84.82-3,1.78-4.29,3.77-5,3-11.62-2.26-15-2.32-1.49-4.6-4.56-8.24-2.2-1.1.71-1.66-.62-2-1.56-.89-2.32-2.64-2.55-4.73-2.18-.11,1.39.84,1.74,1.58,2a6.59,6.59,0,0,1,4.47,5c.47,2,2.12,2.56,4,2.74,1,.1,2.2.25,2.19,1.54,0,1.53-1.4,1.53-2.48,1.63-1.77.15-3.7.16-4.86-1.31-2.4-3-3.94-1.15-5.59.7a4,4,0,0,0-1.41,3.3c.39,1.58-.25,2.2-1.85,2.38-3.28.37-4.79,2.82-5.93,5.61,3.48-1.78,6-4.66,8.7-7.39a7.74,7.74,0,0,1,1.36-1.26c.81-.58,1.69-1.28,2.6-.27s.08,1.81-.45,2.63c-1.11,1.7-3.14,3-2.56,5.46.06,1-.37,1.7-1.46,1.7-4,0-5.23,3.36-7.07,6,3.8-1.69,6.4-4.83,9.23-7.7,1.19-1.23,2.34-2.51,3.56-3.72a1.8,1.8,0,0,1,2.63-.29,1.5,1.5,0,0,1,0,2.3c-1.58,1.54-.77,3.46-1.07,5.2-2.31,1-5.09,1-6.59,3.54-.43.7-1.46,1.26-.93,2.21s1.58.28,2.39.4A1.72,1.72,0,0,1,849.6,337.36Z" transform="translate(-834.32 -176.78)"/><path class="cls-2" d="M1002.08,306.64c0-.54,0-1.09,0-1.63,1.47-1.24,3.26-1.06,5-1.08,6.47,0,12.94.06,19.41-.05,3.8-.06,4.23-.55,4.33-4.39.07-2.86,0-5.72,0-8.58,0-1.48-.09-3,1-4.26-.15-1.25-1.74-.84-2.12-1.82l3,0a3.05,3.05,0,0,1,1.61,2,69.24,69.24,0,0,1,.07,12,4.16,4.16,0,0,1-.9,1.79c-.11,6-.11,6-6.22,6-3,0-6,0-9,.07-.09,0-.17.12-.62.47L1033,323.72a1.73,1.73,0,0,1-1.47.69c-1.61-.16-2.57-1.35-3.65-2.33-3.83-4-3.74-3.92-6.94-1.47-6.27,4.79-4.63,4.5-.22,8.91,4.71,5.47,9.84,10.55,14.9,15.69,6.4,6.5,13.53,9.09,22.21,4.77a2.92,2.92,0,0,1,2.51-.32l-.56,2.1c-8.57,5.44-17.92,3.94-25.86-4.27-5.63-5.82-11.25-11.65-16.71-17.63-2.39-2.63-4.51-4.53-7.33-.71-1.23,1.66-1.9.19-2.57-.48-1.63-1.62-3.16-3.35-5.49-5.84,0,8.56,0,16.09,0,23.61,0,1.42.57,3-.51,4.29-.79-.64-.69-1.54-.69-2.4q0-13.29,0-26.56c0-1-.33-2.67,1.48-1,3,0,3.85,2.71,5.68,4.2,1.14,1.5,2.3,1.1,3.43,0,2.84-2.76,5.62-5.58,8.41-8.39,2.29-2.32,0-3.41-1.28-4.77-2.66-3.47-6.15-4.74-10.47-4.31C1005.91,307.73,1003.82,308,1002.08,306.64Z" transform="translate(-834.32 -176.78)"/><path class="cls-5" d="M1068.65,281c0-13.32.08-26.64-.07-39.95-.08-7.39,3-13.75,6-20.16a3.46,3.46,0,0,1,4.72-1.8c2.08.8,2.53,2.62,2,4.64-.3,1.18-.8,2.31-1.44,4.11,6.65,0,12.91,0,19.18,0,3.27,0,6.52-.12,5.9,4.78-.14,1.16,1.45.66,1.94,1.35a1.29,1.29,0,0,1,.05,1.67c-1.29,1-2.8.79-4.26.81-2.21.05-4.44-.21-6.22,1.61-.89.9-1.79.47-2.48-.45-1.26-1.75-3.18-1-4.83-1.25-1.36-.2-3-.25-2.86-2.17s1.84-2,3.14-1.85c2.74.39,5.43-.26,8.15-.15a5,5,0,0,0,3.86-.92c-2.81-1.19-5.29-1.4-7.49.3-1.37,1.06-2.33,1.16-3.52,0s-2.46-1-3.84-1.11c-2.71-.22-4.75.11-4.3,3.66a4.17,4.17,0,0,1-1.33,3.39c-1,1-2.16,2.12-3.55,1.14s0-2,.47-2.89,1.26-2,.78-2.78c-2-3.4-1.39-6.83.1-10.7-3,1.8-3.16,2.1-2.6,4.91.21,1,.71,1.93-.43,2.64-4.64,2.86-4.44,7.3-3.86,11.84a20.77,20.77,0,0,1,.6,3.68,4.46,4.46,0,0,1-.53,1.74c-1,1.73-.63,3.64-.67,5.48-.17,9.32.3,18.64-.25,28a3.82,3.82,0,0,1-1.42,2.21C1068.2,282.74,1068.18,282,1068.65,281Z" transform="translate(-834.32 -176.78)"/><path class="cls-2" d="M874.77,297.7l.06-.94c3.17-.88,5.85,1.59,8.94,1.27q12.33.08,24.64,0c5.48,0,5.66-.27,5.67-5.7a15.38,15.38,0,0,0-.31-4.44c-1.37-2.22-3.55-.86-5.35-1.21-6.44,0-12.89,0-19.33,0-1.57,0-3.26.29-4.55-1v-.8l32.19,0a4.25,4.25,0,0,1,.94,1.87c.47,4.2.12,8.42.23,12.63s.39,4.5,4.44,4.55c6.2.07,12.4,0,18.6,0,1.72,0,3.5-.15,5,1.1l0,1.57c-1.81,1.48-4,1.08-6,.94-3.57-.24-6.49.73-8.72,3.57-.52.53-1.07,1-1.64,1.51-2.12,1.77-2.23,3.42.16,5.07,2.69,1.85,4.79,4.34,7.08,6.62,1.3,1.3,2.52,2.08,4.08.44.87-.52,1.59-1.49,2.82-.94l1.76.09c-.72.84-1.51,1.64-2.15,2.54-2.28,3.22-4.65,4.73-7.54.63-.44-.63-1.1-.35-1.7-.21-.61.32-1,0-1.33-.47-1.38-3.36-4.44-5.25-7-7.45-2.23-1.91-2.94,1-4.11,2.16-2.31,2.18-3.91,5.27-7.43,5.93-.52-.25-1-.53-.56-1.22l17.8-19.17c-4.42,0-8.21-.3-11.93.08s-4.92-1.05-4.31-4.52a8.24,8.24,0,0,0,0-1.49c-1.21-1-2.62-.45-3.93-.48-10-.21-20,.32-30-.3C878.85,300,876.56,299.57,874.77,297.7Z" transform="translate(-834.32 -176.78)"/><path class="cls-9" d="M1106.84,235.53l0-1.53c3.1,2.23,3.24,4.86.17,6.45-1.11.58-1.72.83-1.64,2.27.15,2.83-1.64,4-4.25,3.93-1.41,0-2.08,0-2,1.93.12,2.52-1.67,3.64-4.16,3.64-3.47,0-7,0-10.42,0-.89,0-1.67.51-2.55.56-1.74,0-3.63.5-4.78-1.44a2.14,2.14,0,0,1,.23-1.69,38.32,38.32,0,0,1,11.76.14c2.18.36,3.86-.56,6.54-1-3-1.62-4.35,2.67-6.37.61-1.16-1.19-3.44-1.87-2.94-4.28,2.82-2,6-.23,9-.94a12,12,0,0,1,1.47,0c1.54-.15,3.28.48,4.52-.93.4-.45,0-1-.52-1.13-1.93-.53-4-1-5.58.59s-2.57,1.81-3.81-.08c-1-.85-2.39-.52-3.5-1-1.56-.66-2.73-1.56-.69-3.09,4.9-.7,9.82,0,14.73-.37C1104.17,238,1106,237.83,1106.84,235.53Z" transform="translate(-834.32 -176.78)"/><path class="cls-10" d="M939.22,235.47c1.28-.48,1.57-1.21,1.59-2.73.07-4.58-1-9.23.62-13.74,1.75,2.72,4.61.45,6.73,1.5v4.08c0,8.4-.81,9.47-8.95,11.63Z" transform="translate(-834.32 -176.78)"/><path class="cls-11" d="M933.14,325.93l.93.93c-6.76,7.74-14,15.06-21.22,22.35A13.19,13.19,0,0,1,907,353c-.44-.53-1.43-.1-1.68-1,2.55-3.21,6.29-5,9.15-7.94,4.66-4.79,8.76-10.11,13.7-14.64C929.82,328.25,930.68,326,933.14,325.93Z" transform="translate(-834.32 -176.78)"/><path class="cls-12" d="M849.6,337.36l-1.83-.12c.49-3.58,3.94-4.7,5.88-7.07a5.77,5.77,0,0,1,1.53-2.51c.91-.87,1.88-1.73,3.26-1.24s.95,1.8.81,2.85.59,2.19,0,3.28c-.74.87-1.69.75-2.69.65-1.44-.14-2.29.55-2.46,2.34,2.22,0,3.12-2.24,4.89-2.7,1.22-1.65,1.94-3.88,4.53-3.95l1.09,1c-2,2.18-4,4.35-6,6.53-2.24,2.45-4.53,4.06-7.35.7C850.69,336.51,850.14,337.19,849.6,337.36Z" transform="translate(-834.32 -176.78)"/><path class="cls-13" d="M1082.58,252.11c.68-.18,1.4-1,2,.14,0,9,0,17.92-.11,26.89a21.75,21.75,0,0,1-4,13.16c-1.11-.09-1.13-.95-1.24-1.76.54-3,2.06-5.73,2.35-8.8.66-8.32.16-16.64.26-24.95C1081.83,255.18,1081.61,253.55,1082.58,252.11Z" transform="translate(-834.32 -176.78)"/><path class="cls-11" d="M905.32,352.17A2,2,0,0,1,907,353c-1.85.68-3.54,1.93-5.67,1.62a8,8,0,0,1-4.41,0c-4.7.33-8.36-2.22-11.54-5-5.78-5-11.1-10.59-16.61-15.93a.71.71,0,0,1,0-1,1.93,1.93,0,0,1,1.62-.23c5,4.42,10.07,8.79,14.75,13.55a22.49,22.49,0,0,0,11.5,6.43,8,8,0,0,0,5.07,0C902.88,352.14,904.06,351.37,905.32,352.17Z" transform="translate(-834.32 -176.78)"/><path class="cls-14" d="M1026,274.37c.2-.49.41-1,.62-1.47,2.61.89,4.32-2,6.8-1.63l1,1a12.16,12.16,0,0,1-2,1.63c-2.52,1.35-3.43,2.79-1.1,5.28,2.61,2.8-.46,3.31-2,4.35a5.37,5.37,0,0,1-5,2.2c-7.27-.18-14.56-.05-21.84-.08-1.18,0-2.5.41-3.45-.76,1.31-1.28,3-1,4.57-1,5.7-.05,11.39,0,17.09,0a10,10,0,0,0,5.65-1.47c1.8-1.16,2.33-2.48.9-4.26C1026.7,276.92,1025.51,275.93,1026,274.37Z" transform="translate(-834.32 -176.78)"/><path class="cls-14" d="M1068.65,281a1.69,1.69,0,0,0,.81,1.6c-.06,3.5-1.67,4.61-6.36,4.42a122.48,122.48,0,0,0-21.75,0,9,9,0,0,1-2,.29c-2,.05-4.07.44-5.84-.95-.25-.52-.51-1-.77-1.55q14.54-.08,29.07-.16C1064.72,284.69,1067.61,284.55,1068.65,281Z" transform="translate(-834.32 -176.78)"/><path class="cls-15" d="M1079.84,290.69c.2.54.4,1.08.61,1.61-3.08,4.79-7.58,7.14-13.15,7.63l-.5-.06c-.84-.12-1.78-.05-2.1-1.13a1.2,1.2,0,0,1,.56-.85c4.91-.75,9.28-2.53,12.6-6.41A2.07,2.07,0,0,1,1079.84,290.69Z" transform="translate(-834.32 -176.78)"/><path class="cls-15" d="M1033.53,300.65l.08-1.78a2.56,2.56,0,0,1,1.37-.18c7.34.24,14.69.06,22,.1,3.35,0,6.71-.11,10,.93l.33.21c-2.12,1-4.39.6-6.59.62C1051.65,300.62,1042.59,300.62,1033.53,300.65Z" transform="translate(-834.32 -176.78)"/><path class="cls-16" d="M881.3,299.93l31.23-.08c1,0,2-.2,2.67.86-9.6,0-19.19-.07-28.78-.15C884.7,300.55,882.91,300.87,881.3,299.93Z" transform="translate(-834.32 -176.78)"/><path class="cls-17" d="M913.63,325.81l.77,1c-.64,3.64-3.35,5.37-6.32,6.86l-1.82-.12A57.24,57.24,0,0,1,913.63,325.81Z" transform="translate(-834.32 -176.78)"/><path class="cls-12" d="M868.94,332.53l-.18,1.13-4-3.75,1.12-1.05C868,329.22,869.31,330.17,868.94,332.53Z" transform="translate(-834.32 -176.78)"/><path class="cls-18" d="M1031.16,323.84l1.83-.12a5.14,5.14,0,0,1,2.14,2.26l-1,1C1032.27,326.79,1031.17,325.84,1031.16,323.84Z" transform="translate(-834.32 -176.78)"/><path class="cls-2" d="M919.53,284.8l1.74-1.47.4.33c1.3,2.33-.41,2.66-2,3a1.33,1.33,0,0,1-.91-.43,1.19,1.19,0,0,1,.24-1.43A.42.42,0,0,1,919.53,284.8Z" transform="translate(-834.32 -176.78)"/><path class="cls-3" d="M919,284.85v1.38a1.48,1.48,0,0,1-2.15.34l-.09-1.72Z" transform="translate(-834.32 -176.78)"/><path class="cls-19" d="M896.91,354.58h4.41A5.12,5.12,0,0,1,896.91,354.58Z" transform="translate(-834.32 -176.78)"/><path class="cls-20" d="M990,355.29c2.09,1.55,3.82,3.6,6.29,4.62,1.45.6,1.42,1.87,1.52,3.12.82,11.17,1.72,22.34,2.47,33.52,1.42,20.87,2.75,41.74,4.12,62.62.62,1.78-.33,2.58-1.9,2.79-3.42.45-6.85-.46-10.3,0-1.09.14-1.59-1-2-1.91q-3.12-45.28-6.25-90.57c-.19-2.73.38-6.15-1-8-1.57-2-5,.27-7.65-.14-1.71-.26-3.59.29-5.21-.17-4.33-1.22-4.71.93-4.93,4.49-1.31,21.13-2.86,42.24-4.34,63.36-.73,10.44-1.54,20.87-2.16,31.31-.14,2.32-1,3-3.18,2.89-3-.15-6-.1-9,0-1.83,0-2.63-.3-2.47-2.5q3.38-47.71,6.56-95.42c.19-2.79.54-5.3,3.67-6.62,1.65-.7,2.94-2.26,4.38-3.43a13.48,13.48,0,0,1,6.2-1.07c6.59-.1,13.18,0,19.78,0A11.64,11.64,0,0,1,990,355.29Z" transform="translate(-834.32 -176.78)"/><path class="cls-21" d="M998.44,465.23c2.36,0,4.72.06,7.08,0s3.16,1,2.42,3.24a8.28,8.28,0,0,1-.46,1c-1.05,2.34-1.21,6.12-3.26,6.74-3.41,1.05-7.35.41-11.07.42-1.08,0-1.31-.92-1.61-1.76-4-10.95-4.83-9.59,6.15-9.63Z" transform="translate(-834.32 -176.78)"/><path class="cls-21" d="M950.28,465.24c2.24,0,4.48.06,6.71,0,2.93-.11,3.32,1.13,2.45,3.69-2.47,7.23-2.4,7.3-10.17,7.18-1.81,0-4.29,1-5.3-.54a32.47,32.47,0,0,1-3.37-8.19c-.49-1.6.77-2.13,2.23-2.12Z" transform="translate(-834.32 -176.78)"/><path class="cls-22" d="M990,355.29c-8.15,0-16.31,0-24.46-.08-2.31,0-4.62,1-6.93,0l1.76-2.9.63-.78c8-.05,16.1,0,24.15-.18C988.06,351.31,988.67,353.65,990,355.29Z" transform="translate(-834.32 -176.78)"/><path class="cls-23" d="M950.07,488.61c2.49,0,5,0,7.47,0,1.43,0,3,.56,3.06,2.07a2.94,2.94,0,0,1-2.85,3c-4.72.13-9.46.2-14.18,0-1.93-.08-4-1.43-3.88-3.36s2.38-1.72,4-1.7C945.83,488.63,948,488.61,950.07,488.61Z" transform="translate(-834.32 -176.78)"/><path class="cls-24" d="M985.82,491.53c4.88,5.88,20.12,5.83,25.09.33,1.44,5.68.29,7.28-5.27,7.29q-6.52,0-13,0C985.68,499.14,985.43,498.88,985.82,491.53Z" transform="translate(-834.32 -176.78)"/><path class="cls-25" d="M998.72,488.6h7.09c1.3,0,2.75.12,3.17,1.44.51,1.62-1.14,2.21-2.15,3a4.18,4.18,0,0,1-2.83.73c-4,0-8-.07-11.94,0-2.23,0-3.94-1.11-3.88-3.1.05-1.83,2.13-2.07,3.81-2.07Z" transform="translate(-834.32 -176.78)"/><path class="cls-26" d="M937.63,491.94c6,5.57,20.9,5.41,24.92-.27,1.4,6,.29,7.48-5.71,7.47H943.79C937.43,499.13,937,498.6,937.63,491.94Z" transform="translate(-834.32 -176.78)"/><path class="cls-27" d="M990.2,460c.62.41,1.36,1.3,1.83,1.17,3.45-1,6.87.12,10.3,0,1.61-.06,1.84-.89,2.08-2,1,4.08.82,4.41-3,4.46-2.59,0-5.2-.12-7.78,0C990.87,463.83,989.61,462.86,990.2,460Z" transform="translate(-834.32 -176.78)"/><path class="cls-28" d="M1006,486.8H992C995.91,483.15,1000.46,483.47,1006,486.8Z" transform="translate(-834.32 -176.78)"/><path class="cls-29" d="M942.91,486.63c5.9-3.29,8.65-3.31,14.28,0Z" transform="translate(-834.32 -176.78)"/><path class="cls-30" d="M989.49,351.73c2.7-.27,5.44-1.05,8,.53,0,1.24-.07,2.48-.1,3.72-1.2.6-2.42-.19-3.62.07A20.48,20.48,0,0,1,989.49,351.73Z" transform="translate(-834.32 -176.78)"/><path class="cls-31" d="M962.45,481.64c1.09,1.32.83,2.84.33,4.21-.3.85.06,2.64-1.68,2.23a2.9,2.9,0,0,1-2.55-3.1c0-1.88.93-1.58,2.13-1.34.82.16,1-.55,1.07-1.17C961.92,482.14,962,481.72,962.45,481.64Z" transform="translate(-834.32 -176.78)"/><path class="cls-32" d="M952.66,351.55c1.83.1,3.78-.78,5.43.69a6,6,0,0,0-.34.67c-1.56.47-2.72,1.31-2.82,3.11-1,.89-1.93,2.09-3.33,1.92-.67-.07-.36-1.25-.31-1.95C952.07,354.61,951,352.65,952.66,351.55Z" transform="translate(-834.32 -176.78)"/><path class="cls-33" d="M987,483.29c.63,1.38,3.2-1.37,3.18,1.55a3.07,3.07,0,0,1-2.06,3.08c-1.93.91-1.67-.52-1.83-1.56S985.14,483.94,987,483.29Z" transform="translate(-834.32 -176.78)"/><path class="cls-34" d="M1011.14,484.87c-.26,1.16.44,3.11-1.86,2.71-1.56-.27-2.17-1.51-2-3.08.22-2.56,2.49.25,3.13-1.21C1011.79,483.25,1011.38,484.1,1011.14,484.87Z" transform="translate(-834.32 -176.78)"/><path class="cls-35" d="M938.64,483.88c1,.25,2.44-1.76,2.87.63a2.65,2.65,0,0,1-2.31,3.25c-2.14.25-1.32-1.77-1.59-2.91C937.41,484,937.81,483.68,938.64,483.88Z" transform="translate(-834.32 -176.78)"/><path class="cls-36" d="M987,483.29c-1,.84-.51,2-.71,3.07-1.34-2.38-.77-4.53.82-6.52.38-.46.89-1.13,1.51-.82.43.22.59,1,.88,1.47.65,1.13-.24,1.19-.94,1.36A2.06,2.06,0,0,0,987,483.29Z" transform="translate(-834.32 -176.78)"/><path class="cls-37" d="M938.64,483.88l-1,1c-1.13-1.86.1-3.3.94-4.76a2.36,2.36,0,0,1,1.41-1c.63-.12.51.66.7,1.07.36.75.53,1.42-.6,1.63A1.55,1.55,0,0,0,938.64,483.88Z" transform="translate(-834.32 -176.78)"/><path class="cls-38" d="M1011.14,484.87l-.77-1.58c0-1.69-3.77-1.05-2.26-3.72.32-.56.62-.8,1.09-.49a6.28,6.28,0,0,1,2.41,4.44C1011.69,483.93,1011.31,484.41,1011.14,484.87Z" transform="translate(-834.32 -176.78)"/><path class="cls-39" d="M954.93,356c-.1-.71-1.74-.93-.62-2.06s1.86-2.13,3.44-1A5.69,5.69,0,0,1,954.93,356Z" transform="translate(-834.32 -176.78)"/><path class="cls-40" d="M993.79,356.05c1.18-1.44,2.4-.72,3.62-.07.11.72.37,1.92-.24,2C995.73,358.19,994.78,357,993.79,356.05Z" transform="translate(-834.32 -176.78)"/><path class="cls-41" d="M962.45,481.64l-.7.83c-.66-.94-4-.2-1.81-2.92a.71.71,0,0,1,1.09-.11A2.59,2.59,0,0,1,962.45,481.64Z" transform="translate(-834.32 -176.78)"/><path class="cls-42" d="M948.37,478.05h4.47C951.55,479.94,950.28,479.24,948.37,478.05Z" transform="translate(-834.32 -176.78)"/><path class="cls-39" d="M952.66,351.55c-.69,1.41-.13,3.2-1.37,4.44l-.06-4.35Z" transform="translate(-834.32 -176.78)"/><path class="cls-43" d="M995.93,478.12h3.18C998.06,480,997,478.76,995.93,478.12Z" transform="translate(-834.32 -176.78)"/><path class="cls-44" d="M996.31,481.37a3.33,3.33,0,0,1,3.25,0C998.61,482.33,997.69,482.24,996.31,481.37Z" transform="translate(-834.32 -176.78)"/><path class="cls-45" d="M945.79,479.3c.19.34.47.63.49.93,0,.65-.48.82-1,.65a1,1,0,0,1-.54-.74C944.81,479.9,945.23,479.73,945.79,479.3Z" transform="translate(-834.32 -176.78)"/><path class="cls-46" d="M961,479.44l-1.09.11-1.89-1.26C959.58,477.82,960.33,478.57,961,479.44Z" transform="translate(-834.32 -176.78)"/><path class="cls-47" d="M952.23,481.45a2.14,2.14,0,0,1-3,0A2.31,2.31,0,0,1,952.23,481.45Z" transform="translate(-834.32 -176.78)"/><path class="cls-21" d="M982.64,286.48c5,0,10,0,14.94-.14,1.72,0,2.39.39,2.38,2.26q-.09,29.32,0,58.66c0,1.86-.72,2.27-2.42,2.26-15.7,0-31.39-.07-47.08,0-2.13,0-2.4-.87-2.4-2.66q.07-29,0-57.91c0-2.18.69-2.81,2.75-2.63a46,46,0,0,0,4.84-.1c1.6,0,3.21.17,4.8.11,3.31-.14,6,.06,8.61,3.12C972.93,294,979.51,292.27,982.64,286.48Z" transform="translate(-834.32 -176.78)"/><path class="cls-48" d="M963.21,276.41c-13.05-6.47-19.47-16.9-18.83-31.55a19.83,19.83,0,0,0,0-3.36c-.46-3.18.44-5.57,3.57-6.84,2.26-1.83,2.53-4.31,2.51-7-.05-7.36.67-8.12,8.44-9.58,4,3.65,8.82,4.57,14.13,4.38,6.94-.24,13.89-.1,20.83,0,5.72.05,6.63,1.65,4.2,7.14-1.44,1.11-3,.79-4.65.48a25.22,25.22,0,0,0-5.95-.26c-1.11.06-2.84-.43-2.76,1.53.05,1.42,1.41,1.72,2.54,1.59,3.58-.44,7.36,2.23,10.76-.73,1.38-.58,2.26.34,3.2,1.08,1,1,1.63,2.37,3.13,2.8.35-.19.58-.1.7.28.45,8.8,1.25,17.63-3.12,25.87C996,273.25,981.82,282.91,963.21,276.41Z" transform="translate(-834.32 -176.78)"/><path class="cls-49" d="M1006.55,216c-4.73,2.36-9.79,2.37-14.91,2.28-7-.12-14-.3-20.93.07a15.38,15.38,0,0,1-11.88-4.08c-1.31-1.2-2.4-1.59-3.87-.28-1.65,1.48-3.52,1.73-5.82,1.38-4.17-.64-7.66,1.44-11.37,4.21-.08-6.07-3.07-11.52-.49-17.35,1.24-2.81,3-4.31,6.22-4.15a54.89,54.89,0,0,0,7-.21c.77-.06,1.63-.3,2.11.28,2.54,3.12,4.2,1.42,6-.87,2.77-3.54,6.7-4.17,10.9-4,9.8.48,19.58.47,29.22-1.8,3.35-.79,6-2.26,7.39-6.38,3.42,5,3.38,10.21,4.08,15.16.73,5.22.19,10.39-2.93,14.95Z" transform="translate(-834.32 -176.78)"/><path class="cls-48" d="M916.75,216q-7,9.87-13.94,19.73c-4.37,6.24-4,8.41,2.14,12.82,5.44,3.91,10.85,7.85,16.28,11.77a3.43,3.43,0,0,1,.9,1.6c.19,2.64-4.32,8.26-7,8.8-6.9-4.9-14-9.51-20.65-14.78-8.05-6.41-9.28-15.84-3.45-24.72,4.1-6.24,8.7-12.15,13.08-18.21.79-.69,1.6-.28,2.43-.09,2.7.62,5.23,2,8.21,1.29C915.75,213.94,917,214.35,916.75,216Z" transform="translate(-834.32 -176.78)"/><path class="cls-50" d="M903.19,195.82c2.24-1.7,4.41-2.06,6.52.25a.87.87,0,0,0,1.32,0c.61-.61.24-1.17-.25-1.56-1.74-1.38-3.52-2.72-5.28-4.07-.21-.17-.28-.34-.2-.51s.15-.24.22-.24c1.92-2.42,3.61-1.23,5.47.18,1,.71,2.25,2.61,3.24,1.33,1.19-1.53-1.29-1.83-2-2.77a7.9,7.9,0,0,0-.76-.77.54.54,0,0,1-.18-.62c.08-.19.16-.29.24-.29,1.68-1.59,3.21-1.72,5,0a49,49,0,0,0,5.66,4c-3.64,1.58-4.7,4.21-4.06,7.57.16.81.09,2,1.36,1.77s.49-1.17.35-1.82c-.67-3.11.45-5.17,3.6-5.83,2.69-.57,2.25-3,2.94-4.69.51-1.28.64-3,2.49-2.66,2.29.36,1.41,2.23,1.32,3.6-.15,2.3-.69,4.35-4.17,4.37,3.83,1.17,2.48,3.4,1.83,5.42-2.87,8.88-9.15,12.86-16.1,10.07-3.5-1.4-6.32-3.94-9.24-6.26-.23-.1-.3-.22-.24-.34s.14-.18.21-.18c1.36-.58,2.31-2.91,4.29-1,.12.11.75-.08.9-.3.47-.66,0-1.12-.49-1.54-1.26-1.13-3-1.67-3.92-3.23Z" transform="translate(-834.32 -176.78)"/><path class="cls-51" d="M953.41,284.85h-3.74c-8.1,2-16.33.84-24.5,1a4.45,4.45,0,0,1-3.92-2.48h0c-3-1.84-3.49-3.83-.36-6,3-1.12,6.1-.19,9.15-.13,5,.09,10.07-.61,15.09.27q4.27,2.93,8.56,5.84C954.87,284.07,954.61,284.54,953.41,284.85Z" transform="translate(-834.32 -176.78)"/><path class="cls-52" d="M945.15,277.44a84.86,84.86,0,0,1-24.24-.14c2.26-3.24,4.57-6.44,6.74-9.74.94-1.41,1.68-1.77,3.18-.63C935.54,270.51,940.37,274,945.15,277.44Z" transform="translate(-834.32 -176.78)"/><path class="cls-53" d="M1005,236.33l-.7-.28c-2.85-4.08-2.23-8.75-2.24-13.31,2.86-1.13,5.06-2.92,6-6,1.32-1,1.44,0,1.48.92.22,5.44-.21,10.88.23,16.34.13,1.62-1.48,2.06-3,1.53C1005.86,235.22,1005.07,234.89,1005,236.33Z" transform="translate(-834.32 -176.78)"/><path class="cls-54" d="M915.12,270.71c2.66-3.1,6.64-5.42,6.1-10.4,6.64,4,6.64,4,2.46,9.9C920.1,275.29,920.1,275.29,915.12,270.71Z" transform="translate(-834.32 -176.78)"/><path class="cls-55" d="M968.31,285c-1.32-5.18-1.15-5.36,3.77-4.83a27.58,27.58,0,0,0,5.22.05c5-.42,5.11-.34,3.86,4.75C976.88,287.24,972.6,286.92,968.31,285Z" transform="translate(-834.32 -176.78)"/><path class="cls-56" d="M916.75,216c-.35-.67-.78-1.4-1.66-1.07-4.06,1.54-7.37-1-11-1.92,1.32-3.38,3-5.29,6.94-2.78,2.71,1.72,6,1,9.39.35A16.53,16.53,0,0,1,916.75,216Z" transform="translate(-834.32 -176.78)"/><path class="cls-57" d="M968.31,285a45,45,0,0,0,12.85,0c-.65,3.43-3,5.07-6.23,5.11S969,288.59,968.31,285Z" transform="translate(-834.32 -176.78)"/><path class="cls-58" d="M905.52,189.71c0,.25,0,.5,0,.75-2.84-2-5.7-3.88-8.52-5.87-1.11-.77-1.85-1.83-.82-3.11.89-1.09,2-.71,3,0,.8.57,1.62,1.12,2.42,1.7C903.78,184.81,906.71,186,905.52,189.71Z" transform="translate(-834.32 -176.78)"/><path class="cls-59" d="M911.5,186.77l-.06.91-7.37-5c-1.2-.82-2.34-1.86-1.21-3.33s2.43-.47,3.55.34a14,14,0,0,0,1.53,1.06C910.42,182,912.09,183.71,911.5,186.77Z" transform="translate(-834.32 -176.78)"/><path class="cls-60" d="M903.27,195.76c-2.63-.88-4.48-3-6.73-4.41-1-.64-1.63-1.59-.81-2.81,1-1.42,2.08-.91,3.18-.15a18.76,18.76,0,0,0,2.11,1.49c2.64,1.31,3.92,3.05,2.17,5.94Z" transform="translate(-834.32 -176.78)"/><path class="cls-61" d="M1008.05,216.75c.73,3.07-2.76,6.57-6,6-.17-2.09-.66-4.31,2.72-4.22.85,0,1.38-1,1.77-1.76Z" transform="translate(-834.32 -176.78)"/><path class="cls-62" d="M902.49,201.86a4.41,4.41,0,0,1,0,.52c-1.45-1-2.92-1.87-4.31-2.91-1-.75-1.42-1.8-.51-2.89.77-.92,1.63-.56,2.68-.24C903.59,197.33,902.13,199.9,902.49,201.86Z" transform="translate(-834.32 -176.78)"/><path class="cls-63" d="M1008.79,246.64c-2.33-1.5-2.29-6.84.06-8.1C1011.91,241.3,1011.89,243.07,1008.79,246.64Z" transform="translate(-834.32 -176.78)"/><path class="cls-64" d="M1008.79,246.64c1.27-2.69,2.62-5.38.05-8.1,2.41-.11,2.8,1.72,2.95,3.4C1012,244.15,1011.36,246.08,1008.79,246.64Z" transform="translate(-834.32 -176.78)"/><path class="cls-65" d="M1001.18,233.25l-2.76-.77a2.34,2.34,0,0,1-.9-2.76c.63-1,.19-2.27.58-3.17,1.28-3-.42-3.08-2.57-3.07-8.82,0-17.64,0-26.46,0-4.41,0-8-1.44-10.42-5.26-.18-.62-.09-1,.66-.71,3.43,2.05,7.17,2.55,11.12,2.5,9-.11,18,0,26.92-.09,2.29,0,3.06.64,3,2.94C1000.32,226.35,999.85,229.88,1001.18,233.25Z" transform="translate(-834.32 -176.78)"/><path class="cls-66" d="M959.31,217.54l-.66.71c-.88.66-1.73,1.86-2.63,1.9-5.56.24-5,4.09-4.86,7.77.1,2.8-.11,5.47-3.23,6.74,2.83-4.06,1.41-8.69,1.84-13.07.14-1.39-1.2-3.93,1.19-4C953.73,217.59,956.56,213,959.31,217.54Z" transform="translate(-834.32 -176.78)"/><path class="cls-67" d="M942.13,237.77a16,16,0,0,1,0,9.46C937.26,243.7,937.25,241,942.13,237.77Z" transform="translate(-834.32 -176.78)"/><path class="cls-68" d="M948.16,220.5c-1.61,1.15-3.56.71-5.33,1-2.2.42-1.08-1.58-1.4-2.54h0c1.2-.62,2.56-.83,3.74-1.49C947.51,217.16,948.49,218.17,948.16,220.5Z" transform="translate(-834.32 -176.78)"/><path class="cls-69" d="M942.13,237.77c-3.85,4.85-3.85,5,0,9.46-3.21-.4-4.58-2.56-4.25-5.41C938.15,239.68,939,237.32,942.13,237.77Z" transform="translate(-834.32 -176.78)"/><path class="cls-10" d="M945.17,217.51a4.33,4.33,0,0,1-3.74,1.49A4.27,4.27,0,0,1,945.17,217.51Z" transform="translate(-834.32 -176.78)"/><path class="cls-48" d="M1026.08,261.19c6.06-4.37,12.12-8.72,18.17-13.11,5.36-3.89,5.77-6.27,1.94-11.8-1.42-2-3-4-4.48-5.95l-10.44-15.12c-.15-1.46,1-1.78,1.88-1.53a12.9,12.9,0,0,0,10-1,1.2,1.2,0,0,1,1.35.36c4.24,5.84,8.65,11.56,12.66,17.56,6.59,9.87,5,19.46-4.49,26.52-6.27,4.68-12.77,9.06-19.17,13.57C1030.16,269.56,1026.22,264.57,1026.08,261.19Z" transform="translate(-834.32 -176.78)"/><path class="cls-50" d="M1040,195l2.42-1.33a3.53,3.53,0,0,1,2.43,1.75,1,1,0,0,1-.13,1l-2.61,2.1c-.65.51-1.85.86-1.31,1.9.63,1.23,1.43.18,2.15-.18,1.81-.9,1.87,1.74,3.29,1.64l0,.47c-2.2,1.62-4.35,3.33-6.62,4.86-6.37,4.27-13.94,2.22-17.26-4.68-.7-1.44-1.11-3-1.73-4.52-.82-2-1.25-3.79,2-4.71-4.61-.07-3.9-3.36-4.44-5.79a1.76,1.76,0,0,1,1.3-2.32,1.68,1.68,0,0,1,2.26,1.36c.66,3.45,2,6,5.78,7.23,1.75.57,1.68,2.85,1.2,4.65-.19.68-.71,1.56.44,1.76,1,.17,1.14-.78,1.29-1.48.7-3.43-.23-6.14-4.51-8.11,4.5-.93,5.94-7.14,11.26-3.89.39.28.41.58,0,.9-.73,1.48-4.09,2-2.93,3.45,1.33,1.65,3.19-.88,4.27-1.94,2.08-2,3.15-.05,4.61.59.21.14.28.29.21.43s-.13.22-.2.22l-4.6,3.7C1038.21,195.62,1038.89,195.63,1040,195Z" transform="translate(-834.32 -176.78)"/><path class="cls-70" d="M1026.08,261.19c1.69,3.79,4.61,6.62,7.47,9.49a4,4,0,0,0-.1.59,26.68,26.68,0,0,0-3.29,2.22c-1.53,1.4-2.53.74-3.51-.59-.8-1.21-1.57-2.45-2.41-3.63C1020.78,264.45,1020.77,264.45,1026.08,261.19Z" transform="translate(-834.32 -176.78)"/><path class="cls-71" d="M1044.55,213c-3.74,2.11-7.58,3.17-11.79,1.28-.3-.14-1,.58-1.49.9-1-1.34-2-2.67-3.49-4.59,4.89.91,8.9.79,12.48-1.69,1-.72,1.62-.07,2.12.66C1043.15,210.7,1043.83,211.88,1044.55,213Z" transform="translate(-834.32 -176.78)"/><path class="cls-72" d="M1043.22,190.35c0-.21,0-.43,0-.65,1.22-1.24-1.68-2.67.18-3.9,2.46-1.63,4.85-3.38,7.39-4.89.8-.48,1.71.26,2,1.13.44,1.13-.31,1.91-1.13,2.48C1048.9,186.5,1046.05,188.41,1043.22,190.35Z" transform="translate(-834.32 -176.78)"/><path class="cls-73" d="M1037.26,187.6l0-.9c1.24-1.15-1.56-2.47.15-3.62,2.15-1.45,4.24-3,6.45-4.35a1.57,1.57,0,0,1,2.17.88,1.87,1.87,0,0,1-.79,2.56C1042.57,184,1039.91,185.79,1037.26,187.6Z" transform="translate(-834.32 -176.78)"/><path class="cls-59" d="M1044.73,196.41a4.61,4.61,0,0,1,0-.53c-.66-1-.27-2.17-.7-3.19,1.42-2.07,3.7-3.05,5.63-4.49,1.14-.85,2.18-.81,2.9.21.83,1.18.45,2.34-.8,3.18C1049.42,193.18,1047.08,194.8,1044.73,196.41Z" transform="translate(-834.32 -176.78)"/><path class="cls-74" d="M1046.21,202.34a1.5,1.5,0,0,1,0-.47c-.36-2.36-.77-4.69,2.32-5.72a1.92,1.92,0,0,1,2.56.7,1.58,1.58,0,0,1-.4,2.3C1049.26,200.26,1047.72,201.28,1046.21,202.34Z" transform="translate(-834.32 -176.78)"/><path class="cls-75" d="M1044.05,192.69c.73.95,1.76,1.84.7,3.19l-2.32-2.18Z" transform="translate(-834.32 -176.78)"/><path class="cls-75" d="M1040,195c-.69.81-1.43,2.13-2.53.85-.77-.89.34-1.45,1.14-1.83A1.49,1.49,0,0,0,1040,195Z" transform="translate(-834.32 -176.78)"/><path class="cls-76" d="M1031.16,323.84a9.92,9.92,0,0,0,3,3.14c3.47,3.74,6.83,7.57,10.42,11.18s6.28,3.55,10.3-.18c6.65-6.17,13.21-12.44,19.81-18.67,1.39-.19,1.92.77,1.61,1.76-1.11,3.45-.21,6.47,1.5,9.44a2.63,2.63,0,0,1,0,2.47c-5.6,5.79-11.43,11.33-17.46,16.68-10.68,5.65-17.47,4.55-25.95-4.31-4.89-5.12-9.69-10.33-14.53-15.5.27-3.71,4.57-7.93,8.53-8.36Z" transform="translate(-834.32 -176.78)"/><path class="cls-77" d="M1089.69,332.76a27,27,0,0,1-7.72-7.86,11,11,0,0,1,2.6-15,46.14,46.14,0,0,1,6.79-3.86c.56-.29,1.36-.94,2,0,1.76,2.8,2,2.7,1.92-.67,0-2,2.7-1.57,4.14-2.32a2.09,2.09,0,0,1,2.75.32c1.07,1.54.22,2.61-1.26,3.18-2.86,1.1-5,2.36-5.59,6-.49,3-4,2.11-6.52,2.4,3,3,6.07,1.94,9.36-3,1.9,2,3.71,4,5.65,5.92,1.47,1.42.3,2.12-.58,3a1.19,1.19,0,0,1-1.61,0,3.49,3.49,0,0,0-.34-.15c-1-.38-1.48-2.74-2.79-1.29-1.14,1.26.92,1.92,1.54,2.83a17.82,17.82,0,0,0,2,2.18c1,1.09.16,1.74-.57,2.43-.24.62-.51,1.19-1.34.74-1-.93-1.88-1.92-2.92-2.76-.84-.69-1.49-2.64-2.79-1.44-1,.94.5,2,1.24,2.59,1.84,1.45,1.09,2.59-.12,3.82a.76.76,0,0,1-1.27,0c-.56-.49-1.09-1-1.67-1.46s-1.21-2-2.34-1.18.29,1.42.63,2.1c.81,1.61-1.55,2.15-1.21,3.6Z" transform="translate(-834.32 -176.78)"/><path class="cls-54" d="M1077.79,333a30,30,0,0,0-1.46-3.33c-1.47-2.54-2.39-5.12-1-8,.54-1.07.53-1.86-.67-2.37a7.36,7.36,0,0,1,3.66-3c-.2,4.33.45,8.25,3.4,11.39.78.84.47,1.55-.3,2.2Z" transform="translate(-834.32 -176.78)"/><path class="cls-78" d="M1100.07,327.57l1.34-.74c.19.43.28,1.12.6,1.25,1.08.46,1.79-2,3.17-.41,1.87,2.15,3.88,4.19,5.73,6.36.69.81.21,1.72-.57,2.24a1.94,1.94,0,0,1-2.66-.52Q1103.87,331.67,1100.07,327.57Z" transform="translate(-834.32 -176.78)"/><path class="cls-79" d="M1101.57,320.83h1.61c4-.45,5.86,2.64,8.13,5,.91.95,1.58,2.09.44,3.26-1.27,1.32-2.27.26-3.13-.64C1106.24,325.94,1103.92,323.37,1101.57,320.83Z" transform="translate(-834.32 -176.78)"/><path class="cls-80" d="M1094.21,329.77h1.27c3.83-.81,5.69,2,7.82,4.29.87.93,1.79,1.94.59,3.2-1.42,1.48-2.48.32-3.41-.68C1098.35,334.35,1096.29,332.05,1094.21,329.77Z" transform="translate(-834.32 -176.78)"/><path class="cls-81" d="M1089.62,332.83c2.05-.41,4.3-2.15,5.74,1.05.5,1.1.82,2.1-.23,3a1.73,1.73,0,0,1-2.6-.41c-1-1.21-2.55-1.95-2.84-3.68Z" transform="translate(-834.32 -176.78)"/><path class="cls-21" d="M1031.87,286.65c0,5.1-.21,10.2-.09,15.29.06,2.47-.78,3.14-3.2,3.1-8.83-.13-17.66,0-26.49,0-.09-5.6-.15-11.21-.29-16.81,0-1.54.68-1.87,2-1.84C1013.18,286.56,1022.53,286,1031.87,286.65Z" transform="translate(-834.32 -176.78)"/><path class="cls-21" d="M916.82,286.57l2.15-.34h.77c8.28-1.23,16.6-.4,24.9-.51a2,2,0,0,1,1.32.63A108.91,108.91,0,0,1,945.9,305l-23.44,0c-5.57,0-5.57,0-5.58-5.4Z" transform="translate(-834.32 -176.78)"/><path class="cls-82" d="M1027.69,277.34c1.13,1,3.07,2.54,2.11,3.66-1.6,1.83-3.62,3.71-6.57,3.68-6.7-.08-13.39,0-20.09,0-1.36,0-2.71.13-4.07.19h-.74a5,5,0,0,1-4.33-.05c2.37-3.52,6.23-5.14,9.52-7.49,7.59-.87,15.22.2,22.81-.49A2.3,2.3,0,0,1,1027.69,277.34Z" transform="translate(-834.32 -176.78)"/><path class="cls-52" d="M1027.69,277.34c-6.31,1.25-12.69,1-19,.48-1.68-.14-3.66,1.46-5.15-.51,4.66-3.39,9.37-6.71,14-10.2,1.75-1.33,2.64-.89,3.73.77,1.48,2.25,3.2,4.34,4.82,6.49Z" transform="translate(-834.32 -176.78)"/><path class="cls-83" d="M1007.13,325.57l-5.07-4.76a89.38,89.38,0,0,1,0-14.17,45.12,45.12,0,0,0,7-.06c4.81-.77,7.86,1.47,10.25,5.23-1.76,1.61-3.95,1-6,1.1-4.74.13-4.89.23-4.92,5.08,0,1.48,0,2.95.05,4.43C1008.46,323.64,1008.54,324.93,1007.13,325.57Z" transform="translate(-834.32 -176.78)"/><path class="cls-84" d="M943.7,323.81c-.94.21-1.14,1.56-2.28,1.47-1.75-2.19-1-4.78-1-7.2-.13-5.11-.06-5.06-5.06-5.2-1.91-.05-4.1.4-5.25-1.88,2-3.35,4.79-4.95,8.84-4.41a53,53,0,0,0,7,0c.7,4.5.07,9,.32,13.54C946.35,322.19,944.16,322.34,943.7,323.81Z" transform="translate(-834.32 -176.78)"/><path class="cls-3" d="M946,286.35l-26.22-.12c1.34-.54,2.19-1.33,1.51-2.91a9.21,9.21,0,0,0,5.27,1.39c7.72,0,15.43.08,23.15.13-.53.91-1.42.76-2.25.78-.29.55-1,.34-1.35.71Z" transform="translate(-834.32 -176.78)"/><path class="cls-2" d="M1000.78,305.76v-18.4h.27v18.4Z" transform="translate(-834.32 -176.78)"/><path class="cls-2" d="M946.89,346.18v-18.4h.26v18.39Z" transform="translate(-834.32 -176.78)"/><path class="cls-2" d="M946.07,286.33c.23-.65.79-.68,1.35-.71v18.62h-.73c0-4.65,0-9.31,0-14C946.66,289,947.08,287.53,946.07,286.33Z" transform="translate(-834.32 -176.78)"/><path class="cls-2" d="M1001.11,310.54v5.73h-.37v-5.8Z" transform="translate(-834.32 -176.78)"/><path class="cls-2" d="M947.22,309.79v5.73h-.37v-5.81Z" transform="translate(-834.32 -176.78)"/><path class="cls-14" d="M994,284.8l4.33.05c-1.55,1.42-3.4.59-5.13.67,0,0-.09-.25-.06-.27C993.42,285.09,993.71,285,994,284.8Z" transform="translate(-834.32 -176.78)"/><path class="cls-48" d="M883.14,298.77c-3.06.54-5.51-1.43-8.31-2-5.58-4.11-8.77-9.6-8.92-16.56-.16-7.18,0-14.36,0-21.55.6-1.42,1.92-1.88,3.21-2.34a11.7,11.7,0,0,0,6-4.27c.54-.79,1.24-1.85,2.33-1.52,1.28.39.66,1.71.66,2.59,0,8.35,0,16.69,0,25a9.84,9.84,0,0,0,.25,3.7c.77,2.29,2,4,4.7,4.17,8.44.05,16.88-.17,25.31.12,1.94,2.12,2.74,9.2,1.39,11.47-.82,1.37-2.1,1.08-3.29,1.09C898.74,298.76,890.94,298.64,883.14,298.77Z" transform="translate(-834.32 -176.78)"/><path class="cls-50" d="M854.61,235.64l5.18-.29c.84,0,2,.08,1.89-1.16-.07-.92-1.07-.85-1.81-.85-3.74,0-7.47,0-11.21,0-1.32,0-3.06.29-3.14-1.69-.1-2.2,1.7-2,3.2-2.07,1,0,2,0,3,0,3.16,0,3.16,0,4.8,2.8,2.39-5.48,7.08-1.57,11.19-3.33-1.72,4.06-1.41,7.12,1.63,9.47.57.44,1.26,1.07,1.91.21.51-.67-.17-1.13-.62-1.49-2.75-2.25-3-4.66-.57-7.33,1.73-1.87-.15-3.45-.53-5.13-.32-1.42-1.43-3,.51-3.9s2.55,1,3.09,2.32c.8,1.86,3.18,4-1.43,5.37,4.36.85,6.89,5.71,6.56,10.91a11.48,11.48,0,0,1-11.43,11c-4.11.09-8.22,0-12.33,0-1.39,0-2.94.16-3.16-1.73a1.63,1.63,0,0,1,1.77-1.93c1.32.17,3.39-1.35,3.84,1.35.1.62.13,1.26,1.26,1.43-.26-2.69,2.75-2.45,3.79-4.16-1.19-1.26-2.73-.32-4.07-.62-.71-.15-1.87.43-1.8-1.05-.16-2.36,1.09-2.92,3.22-2.82.94.05,3.3.82,2-1.86a10.92,10.92,0,0,0-4.33-.22C854.41,239,853.59,238.05,854.61,235.64Z" transform="translate(-834.32 -176.78)"/><path class="cls-56" d="M878.42,281.85c-1.06-1.17-.61-2.61-.62-3.93,0-8.91,0-17.83-.44-27.18-1.94,5.62-7.1,6.11-11.41,7.91-.05-1.11,0-2.24-.16-3.35-.25-2.08.3-3.19,2.72-3.28,4-.13,6.83-2.6,9.91-6.24Z" transform="translate(-834.32 -176.78)"/><path class="cls-85" d="M854.61,235.64c-.29,2.23.73,3,2.9,2.86,1.26-.08,2.66-.47,3.79.58-5.61,0-11.22.06-16.83.07-1.51,0-3.31.07-3.23-2.07.07-1.91,1.79-1.72,3.15-1.74s2.75.1,4.11,0c2.2-.2,4.12-.09,4.38,2.62C854.59,237.73,853.49,236,854.61,235.64Z" transform="translate(-834.32 -176.78)"/><path class="cls-86" d="M856.12,243.76c1.63,1.72,4.42-.64,5.87,1.67-4.43-.85-8.91-.16-13.36-.4-1.57-.08-3.68.21-3.67-2.07s2.18-1.76,3.69-2.07A7.18,7.18,0,0,1,856.12,243.76Z" transform="translate(-834.32 -176.78)"/><path class="cls-87" d="M908.52,286.52c-7.11,0-14.22-.06-21.33-.14-1.36,0-2.71-.23-4.07-.36l1.42-.4h24.7a.6.6,0,0,1,.25.53c0,.2,0,.31-.1.31A.72.72,0,0,1,908.52,286.52Z" transform="translate(-834.32 -176.78)"/><path class="cls-48" d="M908.08,333.65c2.26-2.15,4.73-4.1,6.32-6.86l6.69-6.29c2.47,1.82,4.47,4.16,6.79,6.15.92.79,1.72,1.85.88,3.23l-16.7,17.65c-1.92,2-4.45,3.16-6.74,4.64l-3.58.92a11.15,11.15,0,0,1-5.2,0,19.41,19.41,0,0,1-11.61-6.27c-4.49-5.07-10.52-8.57-14.61-14.08a2.19,2.19,0,0,1,0-3c2-2.25,2.19-4.81,1.82-7.59-.17-1.34-.35-2.83,1.77-2.8q8.7,8.21,17.39,16.42c7.21,6.86,8.84,6.81,15.62-.63A18,18,0,0,0,908.08,333.65Z" transform="translate(-834.32 -176.78)"/><path class="cls-88" d="M859.11,332.84c-.21-1.58-2.7-2.94-.46-4.78.12-.1,0-.72-.19-.93a.88.88,0,0,0-1.31,0c-1.16,1.1-2.3,2.22-3.44,3.34-.15.33-.33.35-.54.05-1.32-2-1.77-3.8.58-5.42.53-.37,1.3-1.1.59-1.82-.89-.89-1.51.06-2.1.64l-3.68,3.57c-.83.44-1-.27-1.38-.74-.79-.6-1.78-1.13-.66-2.29a23,23,0,0,0,2-2.19c.67-.92,2.62-1.76,1.67-2.83-1.43-1.61-1.87,1.2-3.1,1.33-1,.42-1.52-.35-2.21-.75-1.49-.84-.55-1.63.1-2.33,1.77-1.92,3.58-3.8,5.56-5.89,1.4,1.82,2.13,4.2,4.65,4.53,1.55.2,3.16.6,4.55-.51,0-1.29-.9-1.09-1.58-1-3.38.37-5.29-1.21-5.55-4.5-.21-2.6-2.46-2.44-3.94-3.33-1.23-.74-3.28-1.06-2.58-3,.79-2.18,2.64-1.13,4.14-.63,1.91.64,4.61.66,2.49,4.48,5.16-3.16,13.57,1.53,15.23,7.72,1,3.76.74,7.36-2.3,10.34a20,20,0,0,0-2.13,3c-1.78.95-2.52,3.11-4.46,3.87Z" transform="translate(-834.32 -176.78)"/><path class="cls-89" d="M874,319.34c-.67.38-1.38.89-1.14,1.7,1.07,3.6.71,6.79-2,9.59-.43.43-.32,1.4-.45,2.13l-1.38-.23c-.19-1.89-1.93-2.52-3-3.67,3-3.58,5.21-7.4,4-12.53C871.92,316.64,872.94,318,874,319.34Z" transform="translate(-834.32 -176.78)"/><path class="cls-90" d="M847.18,326.78l1.38.74-7.27,7.86c-.89,1-2,1.8-3.17.74-1.47-1.29-.41-2.42.56-3.44,1.19-1.26,2.35-2.53,3.58-3.75,1-1,1.8-2.77,3.77-.95C846.83,328.71,847.1,327.51,847.18,326.78Z" transform="translate(-834.32 -176.78)"/><path class="cls-91" d="M844.88,320.05l2.21.75q-3.52,3.82-7.07,7.64c-.88.95-1.85,1.88-3.16.7a1.85,1.85,0,0,1,.34-3.16c2.4-1.52,2.89-6.21,7.37-4.42C845.12,321.79,845,320.63,844.88,320.05Z" transform="translate(-834.32 -176.78)"/><path class="cls-80" d="M853.17,330.55l.54-.05-5.94,6.74c-1.12.63-2.26,1.2-3.24-.2-.86-1.22,0-2.06.75-2.89a12.85,12.85,0,0,0,1.5-1.64C848.38,330.06,850.47,329.34,853.17,330.55Z" transform="translate(-834.32 -176.78)"/><path class="cls-21" d="M1007.13,325.57c.75-3.52,0-7.07.11-10.61,0-2.39.75-3.32,3.19-3.19,3,.17,5.92,0,8.88,0,3.5,3.28,3.49,3.27.12,6.47q-4.3,4.08-8.56,8.21C1009.11,328.19,1007.9,327.83,1007.13,325.57Z" transform="translate(-834.32 -176.78)"/><path class="cls-92" d="M1034.24,299.07a1,1,0,0,0-.63-.2l-.09-12.45,6,.09c1.72,2,1.14,4.49,1.12,6.77,0,2.88,1.21,4,4,3.92q7.78-.1,15.57,0c1.69,0,3.51-.25,4.86,1.22a5.14,5.14,0,0,0-.35.55c-1.34.95-2.87.48-4.29.45C1051.69,299.25,1043,300,1034.24,299.07Z" transform="translate(-834.32 -176.78)"/><path class="cls-93" d="M1028.38,321.49c-3.58,2-6.73,4.51-8.53,8.36-5.41-4.56-5.41-4.56-.42-9.2S1024.27,316.15,1028.38,321.49Z" transform="translate(-834.32 -176.78)"/><path class="cls-88" d="M1065.06,298.43c-7.36,0-14.72-.19-22.07,0-2.87.06-3.75-.91-3.54-3.66s0-5.48,0-8.23l1.52-.25a206.64,206.64,0,0,1,22.4,0c2.73,0,5.36-.19,6-3.62.22-.51-.19-1.28.65-1.54,1-3.26.36-6.6.42-9.9.13-6.21,0-12.42,0-18.63,0-.81-.31-1.86.79-2.23a1.69,1.69,0,0,1,2.1,1.13c1.08,3.2,3.9,3.91,6.57,4.85,1.3.46,2.57.76,2.51,2.64-.25,7.92.37,15.86-.34,23.78.18,2.94-1.42,5.35-2.37,8C1076.05,295.44,1071.37,298.49,1065.06,298.43Z" transform="translate(-834.32 -176.78)"/><path class="cls-94" d="M1086.69,245.31c.53,2.11,4.34,1.17,3.75,4.57,1.17-2.08,2-3.91,4.67-3.21,1.24.32,2.2.68,2.12,2.07a1.75,1.75,0,0,1-2,1.7c-5.84-.24-11.71.66-17.51-.59-3.29,0-4.79-2.24-5.9-4.9-1.84-4.09-1.6-8.18-.15-12.34.75-2.17,1-4.66,4.8-3.49-4-2.81-1.23-5.14-.18-7.48a1.63,1.63,0,0,1,2.18-.94,1.82,1.82,0,0,1,1.19,2.4c-.43,1.3-.89,2.59-1.37,3.87-.31.82-.83,1.64-.07,2.43,3.09,3.24,2,6-1.17,8.55,2.91.41,5-1.53,4.32-4.63-.89-3.95,1-4,3.86-3.87,5.36.16,5.36.06,7,2.66,1.38-2.24,7.6-3.68,10-2.31a1.8,1.8,0,0,1,.94,2.21c-.35,1.2-1.4,1.29-2.42,1.3-3.74,0-7.48,0-11.22,0-.92,0-2.45-.44-2.52.83-.09,1.73,1.65.84,2.57,1.2,1.54.6,3.89-1.51,4.71,1.41.76,1.94-.51,2-1.86,2-1.89.07-3.86-.61-5.65.52.5,3.65,3.87.42,5.17,2.15,1.12,2.57.14,3.5-2.49,3.35C1088.49,244.8,1087.45,244.43,1086.69,245.31Z" transform="translate(-834.32 -176.78)"/><path class="cls-54" d="M1082.21,282.73c0-7.33-.1-14.65,0-22,0-1.95-.21-3.05-2.49-3.35-4-.54-6.49-3.09-7.9-6.86-1.35,1.06-.84,2.26-.85,3.28,0,7.83,0,15.65,0,23.47,0,1.29.54,2.77-.82,3.8.06-10.64.08-21.29.26-31.93,0-.51-1.66-2.87,1.17-2.12,2.12,1.32,4.35,2.47,6.08,4.32,1.54,1,3.28.75,5,.75C1082.81,262.32,1083.46,272.53,1082.21,282.73Z" transform="translate(-834.32 -176.78)"/><path class="cls-95" d="M1086.7,239.35c1.23-1.38,2.8-1.2,4.4-1,1.35.16,2.83.48,3.11-1.55.44.37,1.1,1.4,1.26,1.05,2.07-4.65,6.13-1.69,9.18-2.48a6.89,6.89,0,0,1,2.19.17c1.45,2.7.19,3.6-2.39,3.63Z" transform="translate(-834.32 -176.78)"/><path class="cls-13" d="M1077.61,251.36a9.33,9.33,0,0,1-6.08-4.32l.24-2.09c1.74,1.9,3.47,3.82,5.9,4.9Z" transform="translate(-834.32 -176.78)"/><path class="cls-96" d="M930.06,311c2.83,1.47,5.89.91,8.79.66,2.23-.19,2.59.65,2.58,2.43,0,3.73,0,7.46,0,11.19-1.21,2.63-2.49,2.69-4.48.51a80.32,80.32,0,0,0-8.35-7.94c-2.36-1.94-2.69-3.49-.15-5.37A18.81,18.81,0,0,0,930.06,311Z" transform="translate(-834.32 -176.78)"/><path class="cls-97" d="M908.52,286.52l.72-.28c2-.27,4-.61,6,.23-.24,4,1.78,9.29-.8,11.79-2.38,2.32-7.57.54-11.51.58-6.58.08-13.17,0-19.75-.07,7.24-1,14.52-.36,21.77-.35,3.28,0,4.89-.71,4.35-4.27C908.88,291.63,909.87,289,908.52,286.52Z" transform="translate(-834.32 -176.78)"/><path class="cls-98" d="M928.76,329.88c-.39-2.3-2.22-3.39-3.88-4.63a9.75,9.75,0,0,1-3.79-4.75c3.32-4.37,3.44-4.49,7-.78,1.83,1.92,4.85,3,5.06,6.21Z" transform="translate(-834.32 -176.78)"/><path class="cls-8" d="M915.2,286.47l-6-.23v-.62C911.21,286,913.42,284.77,915.2,286.47Z" transform="translate(-834.32 -176.78)"/><path class="cls-99" d="M1086.69,245.31c.58-1.14,1.67-1,2.61-.88,2.35.26,2.71-1.09,2.57-2.93.79,0,1.11,5.64,2.44.16.32-1.33,8.23-1.09,9,.25,1.28,2.27-.44,3-2.14,3.05-3,.18-5.94,0-8.92.07C1090.38,245.06,1088.54,245.21,1086.69,245.31Z" transform="translate(-834.32 -176.78)"/><path class="cls-100" d="M859.06,332.76c-.62,1.72-2.17,2.66-3.32,3.92a1.6,1.6,0,0,1-2.35.13c-.91-.75-.8-1.6-.3-2.65,1.47-3.15,3.77-2,6-1.33Z" transform="translate(-834.32 -176.78)"/><path class="cls-19" d="M896.54,353.1h5.2A4.9,4.9,0,0,1,896.54,353.1Z" transform="translate(-834.32 -176.78)"/><path class="cls-101" d="M1063.42,286.25H1041c3.09-1.35,6.35-.61,9.51-.56C1054.83,285.75,1059.18,284.9,1063.42,286.25Z" transform="translate(-834.32 -176.78)"/><path class="cls-2" d="M1034.24,299.07l30.47-.09c.76.24,1.72-.15,2.26.74l-30.38.12C1035.72,299.85,1034.84,299.89,1034.24,299.07Z" transform="translate(-834.32 -176.78)"/><path class="cls-102" d="M950.9,412.71c3.43-1,6.14-1.79,9.18.24C957,414.52,954.33,414.62,950.9,412.71Z" transform="translate(-834.32 -176.78)"/><path class="cls-103" d="M999.13,411.78c-3.39,1.44-6,1.68-9-.25C993.21,410.16,995.78,410.3,999.13,411.78Z" transform="translate(-834.32 -176.78)"/><path class="cls-104" d="M997.52,229.72l.9,2.76a3.5,3.5,0,0,1-3.94,2.12c-2.72-.26-5.45-.44-8.18-.64-1.85-.14-3.2-.9-3.06-3s1.76-2.4,3.52-2.33A61.67,61.67,0,0,1,997.52,229.72Z" transform="translate(-834.32 -176.78)"/><path class="cls-14" d="M960.87,228.7c2.07.59,5.66-1.58,6,2.24.34,4.11-3.49,2.76-5.78,3.12a45.46,45.46,0,0,1-6.28.52,2.53,2.53,0,0,1-2.86-2.7c0-1.65,1-2.39,2.61-2.53C956.62,229.17,958.71,228.93,960.87,228.7Z" transform="translate(-834.32 -176.78)"/><path class="cls-105" d="M975.77,239.46c0,2.07-.25,4,2.26,5.27,1.72.83,1.89,2.83,1.46,4.62a4.92,4.92,0,0,1-3.45,3.58c-.59.2-1.25.48-1.64-.21s.15-1,.68-1.45c3.7-2.89,3.67-3.37-.17-6-1.24-.87-1.63-9.06-.45-9.8.76-.47,1.22,0,1.28.69C975.85,237.22,975.77,238.34,975.77,239.46Z" transform="translate(-834.32 -176.78)"/><path class="cls-106" d="M974.4,265.82a10.68,10.68,0,0,1-7-3.28c-.51-.53-1.17-1.16-.46-1.9s1.11,0,1.53.43c4.33,4,8.66,3.71,13,.08.52-.43,1.1-1.3,1.87-.5s0,1.36-.56,1.81A12.66,12.66,0,0,1,974.4,265.82Z" transform="translate(-834.32 -176.78)"/><path class="cls-107" d="M958.5,239.68c0-1.63.26-3.1,1.81-3.11s2,1.45,1.93,2.72-.2,3-2.06,2.92C958.51,242.14,958.68,240.54,958.5,239.68Z" transform="translate(-834.32 -176.78)"/><path class="cls-108" d="M989.78,236.53c1.6,0,2,1.12,2.11,2.22.15,1.47.2,3.2-1.75,3.45-1.43.18-1.66-1.23-1.75-2.33C988.29,238.52,988.36,237.16,989.78,236.53Z" transform="translate(-834.32 -176.78)"/><path class="cls-109" d="M964.7,245.28c-3.34.91-5.89,1.06-8.65,0C958.82,243.2,961,243.14,964.7,245.28Z" transform="translate(-834.32 -176.78)"/><path class="cls-110" d="M985.87,244.94c3.59-1.72,5.35-1.68,8.16,0C991.37,246.35,989.18,246.38,985.87,244.94Z" transform="translate(-834.32 -176.78)"/><path class="cls-111" d="M1006.18,192c.61,2.64,1.34,5.26,1.78,7.93a5.57,5.57,0,0,1-5.27,6.32c-4.36.1-8.73.09-13.09,0-3.69-.07-5.25-1.71-5.52-5.15s1.52-4.75,4.7-5.39c3.46-.69,6.91-.57,10.38-.69C1001.74,194.93,1004.46,195,1006.18,192Z" transform="translate(-834.32 -176.78)"/><path class="cls-112" d="M984.28,232.13c2-2,3.46-1.63,5-1.32a27.61,27.61,0,0,0,4.73.37c.71,0,1.67-.4,1.72.66s-.75.93-1.61.85C991.16,232.44,988.16,232.34,984.28,232.13Z" transform="translate(-834.32 -176.78)"/><path class="cls-53" d="M965.32,231.81c-3.32,1.49-6.7.31-9.72,1.62-.86.38-1.32-.46-1.72-1a.83.83,0,0,1,.27-1.25C955.14,230.44,964.16,230.83,965.32,231.81Z" transform="translate(-834.32 -176.78)"/></svg>